<svg id="Layer_1" data-name="Layer 1" xmlns="http://www.w3.org/2000/svg" viewBox="0 0 3287.69 3349.34"><defs><style>.cls-1{fill:#f6c49f;}.cls-2{fill:#103754;}.cls-3{fill:#fff;}.cls-4{fill:#6b7887;}.cls-5,.cls-9{fill:none;}.cls-5{stroke:#214d68;stroke-width:2.26px;}.cls-6{fill:#fdd6b7;}.cls-7{fill:#dd3514;}.cls-8{fill:#e44822;}.cls-10{fill:#cfd1d2;}.cls-11{fill:#603813;}.cls-12{fill:#efb480;}.cls-13{fill:#04919c;}.cls-14{opacity:0.35;}.cls-15{fill:#03aab7;}.cls-16{fill:#cb9a6f;}.cls-17{fill:#3b2314;}.cls-18{fill:#efc194;}.cls-19{opacity:0.44;}.cls-20{fill:#1e0500;}.cls-21{fill:#512e08;}.cls-22{fill:#f6fbfc;}.cls-23{font-size:23px;font-family:Quicksand;}.cls-24{font-size:14px;}.cls-25{letter-spacing:-1px;}</style></defs><title>editorial</title><path class="cls-1" d="M212.65,824S71.91,639.71,72.52,553.51s73.2-45.13,73.2-45.13L375.34,297.15s83.68,155.73,88.6,169.6-21.55,362.12-21.55,362.12l-9.13,67.69-197.82-9Z" transform="translate(1543.73 1917.53)"/><path class="cls-1" d="M41.52,411.89a23.88,23.88,0,0,0-9.3,7.15c-10.38,12.76.35,55.12,9.83,74.79,0,0,26.5,64.56,26.5,64.56,7.89,16.35,21,26.39,29.21,22.42l31.6-15.23c8.25-4,8.54-20.46.65-36.81L99.81,466.08C92.62,451.17,60,404.05,41.52,411.89Z" transform="translate(1543.73 1917.53)"/><path class="cls-1" d="M71.19,260.73a13.48,13.48,0,0,0-5.72,3.37c-8.54,8.67-8.48,22.74-8.18,34.07,0.33,12.53,1.32,25.2,4.79,37.29,3.41,11.87,9,23.13,13.65,34.55,5.24,12.91,10.57,25.8,16.62,38.35,7.88,16.35,22,25.87,31.59,21.27L160.58,412c9.56-4.6,10.91-21.6,3-38L133.4,311.31c-7-13-16.38-24.19-26.73-34.68-6.21-6.29-13.23-13.72-22-15.9A26.06,26.06,0,0,0,71.19,260.73Z" transform="translate(1543.73 1917.53)"/><path class="cls-1" d="M126,149a24.71,24.71,0,0,0-4.86,2.36c-7.65,5.12-9.94,16.36-10.86,25.27A123.08,123.08,0,0,0,111.62,211a106.17,106.17,0,0,0,5.48,19.57c8.21,20.81,19.74,40.81,29.56,61,0.92,1.9,1.86,3.8,2.79,5.7,8,16.3,22,26,31.23,21.56l35.53-16.86c9.27-4.39,10.32-21.19,2.35-37.48L188,201.91C178.63,182.71,143.87,142,126,149Z" transform="translate(1543.73 1917.53)"/><path class="cls-2" d="M52.12,578a31.54,31.54,0,0,0,18.45,40.61l254.84,95.62A31.54,31.54,0,0,0,366,695.8L561.74,174.22a31.54,31.54,0,0,0-18.45-40.61L288.44,38a31.55,31.55,0,0,0-40.61,18.45Z" transform="translate(1543.73 1917.53)"/><path class="cls-3" d="M122.69,465.12c-6.12,16.31,3.26,34.91,21,41.55l200.27,75.14c17.69,6.64,37-1.2,43.11-17.51l132.83-354c6.12-16.31-3.27-34.92-21-41.55L298.62,93.63c-17.68-6.63-37,1.21-43.1,17.52Z" transform="translate(1543.73 1917.53)"/><path class="cls-4" d="M184.89,595.52c-5.19,13.84-.71,28.32,10,32.35l42.58,16c10.73,4,23.62-3.92,28.82-17.76h0c5.19-13.84.71-28.32-10-32.35l-42.58-16c-10.73-4-23.63,3.94-28.82,17.78h0Z" transform="translate(1543.73 1917.53)"/><path class="cls-5" d="M184.89,595.52c-5.19,13.84-.71,28.32,10,32.35l42.58,16c10.73,4,23.62-3.92,28.82-17.76h0c5.19-13.84.71-28.32-10-32.35l-42.58-16c-10.73-4-23.63,3.94-28.82,17.78h0Z" transform="translate(1543.73 1917.53)"/><path class="cls-6" d="M435,824.2l84.77-200.87,20.8-185.19L536,229.73S459.51,241,456.25,457.87c0,0-72.61,159-77.06,190.63C375.44,675.16,297.11,814.27,435,824.2Z" transform="translate(1543.73 1917.53)"/><polygon class="cls-7" points="2004.9 2742.69 1744.85 2737.11 1698.06 3092.87 1963.26 3146.87 2004.9 2742.69"/><path class="cls-8" d="M538.58,325.9s-28.84,5.69-32-1.9,2.24-96.46,29.39-94.27C550.35,230.89,538.58,325.9,538.58,325.9Z" transform="translate(1543.73 1917.53)"/><path class="cls-8" d="M121.86,1266.87s3.25-371.44,72.22-357.23c0,0,56.74-26.8,96.63,7,0,0,84.71-42.83,104.68,5.64,0,0,81.17-47.6,79.36,56.46l6.81,418.68-356.2,34.38Z" transform="translate(1543.73 1917.53)"/><rect class="cls-9" x="-1030.68" y="-1482.75" width="2261.58" height="2398.36" transform="translate(1800.63 1890.58) rotate(-50.87)"/><rect class="cls-10" x="1709.66" y="1827.73" width="38.06" height="2.59"/><rect class="cls-10" x="1709.66" y="1832.44" width="38.06" height="2.59"/><rect class="cls-10" x="1709.66" y="1837.15" width="38.06" height="2.59"/><rect class="cls-10" x="1709.66" y="1841.86" width="38.06" height="2.59"/><rect class="cls-10" x="1709.66" y="1846.57" width="38.06" height="2.59"/><rect class="cls-10" x="1709.66" y="1851.28" width="38.06" height="2.59"/><rect class="cls-10" x="1709.66" y="1855.99" width="38.06" height="2.59"/><path class="cls-11" d="M437,240.86a3,3,0,0,0-.79-2.06,3,3,0,0,0,.82-2c0-.06,0-0.11,0-0.17a3.84,3.84,0,0,0,2.6-5.09,3,3,0,0,0,1.24-5.2,3,3,0,0,0-1.61-5.31,2.92,2.92,0,0,0,.06-0.31l0.06-.65a3.18,3.18,0,0,0-2.67-3.43,3.18,3.18,0,0,0,3-3.15v-0.67a3,3,0,0,0-.19-1,1.9,1.9,0,0,0,.21-0.1,3,3,0,0,0,1.09-4.16c0-.07-0.09-0.13-0.14-0.19h0a3,3,0,0,0-.65-5.53,3,3,0,0,0-.34-2.18l-0.1-.14a3.84,3.84,0,0,0-.37-5.7,3,3,0,0,0-1.6-5.11,3,3,0,0,0-3.53-3.93l-0.08-.2a3.18,3.18,0,0,0-4-1.8,3.13,3.13,0,0,0,1.22-1.33,3,3,0,0,0,1.15-1,3,3,0,0,0-.88-4.22,2.07,2.07,0,0,0-.21-0.11v0a3,3,0,0,0-3-4.67,3,3,0,0,0-1.27-1.8l-0.15-.08a3.84,3.84,0,0,0-2.86-4.95,3,3,0,0,0-3.7-3.87,3,3,0,0,0-1.33-2.13,3.05,3.05,0,0,0-4.22.87,2.94,2.94,0,0,0-.18.35,3.15,3.15,0,0,0-.84.51,3.18,3.18,0,0,0-.48-4.33l-0.51-.43a3.27,3.27,0,0,0-.7-0.43,3,3,0,0,0-4.4-3.46l-0.14-.12L407,151.1a3.18,3.18,0,0,0-4.3.65,3.18,3.18,0,0,0-1.31-4.13l-0.59-.33a3.19,3.19,0,0,0-4.21,1.07,3.17,3.17,0,0,0-1.7-4l-0.6-.26a3,3,0,0,0-5-1.63,3.08,3.08,0,0,0-1.18-.72l-0.63-.21a3.15,3.15,0,0,0-1.82,0,3,3,0,0,0-5.21-1.9,2.36,2.36,0,0,0-1-.73,2.42,2.42,0,0,0-3.13,1.28,3.18,3.18,0,0,0-2.39-1.64l-0.65-.08a3.12,3.12,0,0,0-1.09.07,2.41,2.41,0,0,0-4.12-.18,3.14,3.14,0,0,0-1.38-.38l-0.66,0a3.17,3.17,0,0,0-3.23,2.89,3.18,3.18,0,0,0-3.36-2.74l-0.66,0a3.24,3.24,0,0,0-.95.24,2.42,2.42,0,0,0-4.28.38,1.93,1.93,0,0,0-.06.22,3.16,3.16,0,0,0-1.25,0l-0.65.11a3.14,3.14,0,0,0-1.35.59,2.38,2.38,0,0,0-3.57.81,3.18,3.18,0,0,0-1.53,0l-0.64.18a3.16,3.16,0,0,0-1.67,1.14l-0.19-.1a3,3,0,0,0-3.41.79,3.15,3.15,0,0,0-1,.18l-0.62.23a3.2,3.2,0,0,0-1.05.67,2.57,2.57,0,0,0-.26-0.14,2.42,2.42,0,0,0-3.15,1.33,2.55,2.55,0,0,0-.14.46,3.14,3.14,0,0,0-1.44.3l-0.61.3a3.17,3.17,0,0,0-1.51,4.07,3.19,3.19,0,0,0-4.26-.89l-0.56.34a3,3,0,0,0-.62.52l-0.17-.09a3,3,0,0,0-4.18,3,3.47,3.47,0,0,0-.48.29l-0.52.39a3.17,3.17,0,0,0-1,1.36,3.16,3.16,0,0,0-.45-0.24,3,3,0,0,0-4.16,3.22,3,3,0,0,0-2.89,4.09,3.16,3.16,0,0,0-1.65,1l-0.44.5a3.17,3.17,0,0,0,.13,4.34,3.18,3.18,0,0,0-4.27.79l-0.4.54a3.17,3.17,0,0,0,.55,4.31,3.19,3.19,0,0,0-4.18,1.21l-0.33.56a3.18,3.18,0,0,0,1,4.24,3.18,3.18,0,0,0-4,1.6l-0.27.59a3,3,0,0,0-.23.74,3,3,0,0,0-2.07,4.93,3.43,3.43,0,0,0-.2.42l-0.22.62a3.18,3.18,0,0,0,1.75,4,3.17,3.17,0,0,0-3.66,2.33l-0.16.65a3.18,3.18,0,0,0,2.13,3.78,3.17,3.17,0,0,0-3.42,2.67l-0.1.66a3.16,3.16,0,0,0,0,.72,3,3,0,0,0-.56,5.33,3.52,3.52,0,0,0-.08.5l0,0.67a3.19,3.19,0,0,0,2.81,3.3,3.18,3.18,0,0,0-2.82,3.28l0,0.67a3.28,3.28,0,0,0,.09.59,3,3,0,0,0,.57,5,3.1,3.1,0,0,0,0,1l0.09,0.65a3.18,3.18,0,0,0,3.41,2.7,3.17,3.17,0,0,0-2.15,3.78l0.15,0.63c0,0.1.07,0.18,0.1,0.27a3,3,0,0,0-.4.68,3,3,0,0,0,1.68,4h0c0,0.07-.08.13-0.11,0.21a3,3,0,0,0,4.1,3.91,3.3,3.3,0,0,0,.57-0.1,3.17,3.17,0,0,0-1.38,4.12l0.27,0.59a3.16,3.16,0,0,0,.78,1,3,3,0,0,0,.38,2.71,3,3,0,0,0-.73,1.06,3,3,0,0,0,1.68,4,2.69,2.69,0,0,0,.3.09,3,3,0,0,0,4.29,2.58,3.22,3.22,0,0,0,.3.52l0.39,0.53a3.05,3.05,0,0,0,.29.33,2.7,2.7,0,0,0-.24.46,3,3,0,0,0,1.67,4l0.23,0.06v0a3,3,0,0,0,3.88,4,3,3,0,0,0,1.6,1.52l0.16,0a3.85,3.85,0,0,0,3.76,4.3,3,3,0,0,0,4.38,3.08,3,3,0,0,0,4.76,1.39l0.13,0.1,0.56,0.35a3.17,3.17,0,0,0,4.26-.86,3.18,3.18,0,0,0,1.5,4.08l0.59,0.29a3.18,3.18,0,0,0,4.16-1.26,3.18,3.18,0,0,0,1.83,3.9l0.05,0,0.61,0.23a3.18,3.18,0,0,0,4-1.64,3.17,3.17,0,0,0,2.25,3.71l0.64,0.18a3.18,3.18,0,0,0,3.84-2,3.19,3.19,0,0,0,2.6,3.48l0.65,0.12a3.17,3.17,0,0,0,3.63-2.39,3.18,3.18,0,0,0,2.92,3.22l0.66,0.05a3.18,3.18,0,0,0,3.37-2.72c0,0.07,0,.13,0,0.19a3,3,0,0,0,.31,2.61,3.05,3.05,0,0,0,4.21.92c0.07,0,.12-0.1.19-0.15v0a3.05,3.05,0,0,0,4.21.93,3,3,0,0,1,3.45-2.21l0.13-.1a3.9,3.9,0,0,0,4.67.37,3.84,3.84,0,0,0,1-1,3,3,0,0,0,5-1.8,3,3,0,0,0,3.75-2,3.17,3.17,0,0,0,.33-2.36,3.18,3.18,0,0,0,4.09,1.49l0.59-.26a3.17,3.17,0,0,0,1.73-4,3.18,3.18,0,0,0,4.2,1.1l0.59-.32a3.17,3.17,0,0,0,1.32-4.14,3.18,3.18,0,0,0,3.74,1,3,3,0,0,0,2.84-1.63,2.15,2.15,0,0,0,.09-0.22h0a3,3,0,0,0,4.11-1.29,3,3,0,0,0,.23-2.19,3,3,0,0,0,1.66-1.44s0-.1.06-0.16a3.84,3.84,0,0,0,4.64-3.34,3,3,0,0,0,3.48-4.07,3,3,0,0,0,1.47-5.06,3.15,3.15,0,0,0,2.31-1.38l0.37-.56a3.17,3.17,0,0,0-.76-4.27,3.16,3.16,0,0,0,4.12-1.39l0.31-.59a3.17,3.17,0,0,0,.29-0.87,3,3,0,0,0,2.55-3c0-.08,0-0.16,0-0.24h0A3,3,0,0,0,437,240.86Z" transform="translate(1543.73 1917.53)"/><path class="cls-12" d="M347.9,257.29L366.75,211l-40.59-28.42s-8.66,39.41-.79,52.8C330.86,244.73,339.45,254.41,347.9,257.29Z" transform="translate(1543.73 1917.53)"/><path class="cls-12" d="M347.9,257.29L366.75,211l48.9,8s-21.34,34.24-36.32,38.33C368.88,260.21,356,261.14,347.9,257.29Z" transform="translate(1543.73 1917.53)"/><path class="cls-12" d="M418.68,227.56c-1.67,4-5.23,10-13.25,9.36-3.9-.32-1.47-10.84.19-14.83s5.95-6,9.55-4.49S420.35,223.57,418.68,227.56Z" transform="translate(1543.73 1917.53)"/><path class="cls-12" d="M318,186.58c-1.59,4-3.26,10.83,2.94,16,3,2.49,8.63-6.72,10.22-10.74s-0.06-8.44-3.7-9.88S319.63,182.56,318,186.58Z" transform="translate(1543.73 1917.53)"/><path class="cls-13" d="M364.31,208.32a0.69,0.69,0,0,0-.9.38l-2.62,6.42a0.69,0.69,0,0,0,1.29.52l2.62-6.42A0.7,0.7,0,0,0,364.31,208.32Z" transform="translate(1543.73 1917.53)"/><path class="cls-13" d="M370.64,210.9a0.69,0.69,0,0,0-.9.38l-2.62,6.42a0.69,0.69,0,0,0,1.29.52L371,211.8A0.69,0.69,0,0,0,370.64,210.9Z" transform="translate(1543.73 1917.53)"/><path class="cls-13" d="M363.44,201.27s-2.29,15.31-.86,11.8c1.52-3.74,3.63-4.57,5.11-4s2.41,2.66.89,6.4c-1.43,3.52,7.63-9,7.63-9A17.92,17.92,0,0,1,363.44,201.27Z" transform="translate(1543.73 1917.53)"/><path class="cls-13" d="M404.36,221.66c0.38-2-4.51-5.24-4.51-5.24l-1,7.66C402.64,226.51,404,223.65,404.36,221.66Z" transform="translate(1543.73 1917.53)"/><path class="cls-13" d="M332.68,192.46c-1.12,1.69-2.16,4.68,2.22,5.55l4.66-6.15S333.8,190.77,332.68,192.46Z" transform="translate(1543.73 1917.53)"/><g class="cls-14"><path class="cls-3" d="M334.26,210.87L359,199.53a43.83,43.83,0,0,0-6.89-3.27l-18.4,8.45A11.29,11.29,0,0,0,334.26,210.87Z" transform="translate(1543.73 1917.53)"/><path class="cls-3" d="M362.32,203.52l-0.92-2,0.11,0a10,10,0,0,0-1.24-1.09L335.5,211.79l1,2.18a12.62,12.62,0,0,0,1.1.9Z" transform="translate(1543.73 1917.53)"/></g><g class="cls-14"><path class="cls-3" d="M370.13,225.48l24.71-11.34a43.81,43.81,0,0,0-6.89-3.27l-18.4,8.45A11.31,11.31,0,0,0,370.13,225.48Z" transform="translate(1543.73 1917.53)"/><path class="cls-3" d="M398.19,218.13l-0.91-2,0.11,0a10,10,0,0,0-1.24-1.09L371.37,226.4l1,2.18a12.69,12.69,0,0,0,1.1.9Z" transform="translate(1543.73 1917.53)"/></g><path class="cls-15" d="M364.55,204c-0.51-3.4-3.6-5.9-11-8.91-1.78-.73-3.88-1.5-6.21-2.3-3.54-1.21-7.2-2.11-9.94-.55s-4,5.21-5.11,10.95c-1.52,7.57,1.25,12.36,9,15.51h0c0.9,0.37,1.9.72,3,1.05,10,3.13,11.79,2.5,15.13-1.58C362.93,213.78,365.13,207.82,364.55,204Zm-7.2,12.44c-2.5,3.05-3.32,3.84-12.47,1s-11.4-7.06-10.07-13.67c1.91-9.51,3.72-11.39,12-8.55,11.82,4,14.65,6.6,15,9.23C362.37,207.66,360.34,212.79,357.35,216.43Z" transform="translate(1543.73 1917.53)"/><path class="cls-15" d="M367.33,221.42c-0.45,5.25.39,7,9.73,11.7,1,0.5,1.95.94,2.85,1.31h0c7.72,3.14,13,1.65,17.25-4.83,3.18-4.91,4.86-8.34,4-11.41s-4.11-4.94-7.49-6.55c-2.23-1.06-4.27-2-6.05-2.7-7.41-3-11.37-3.39-14.11-1.31C370.41,210,367.81,215.77,367.33,221.42Zm7.79-11.61c2.12-1.61,5.93-1.47,17.21,3.9,7.93,3.77,7.91,6.38,2.63,14.52-3.67,5.66-8.22,7.08-16.76,2.75s-8.58-5.48-8.24-9.41C370.37,216.87,372.49,211.79,375.11,209.8Z" transform="translate(1543.73 1917.53)"/><path class="cls-11" d="M423.1,202.78c3-12.22-11.62-63.86-58-53.94,0,0-24.16-7.58-35.79,18.93-1.81,4.13-3.76,8.25-5.38,12.43l-0.57,1.47a6.55,6.55,0,0,1,4.11.23,6.79,6.79,0,0,1,4,4.48,69.29,69.29,0,0,0-3,12.16s13-5,23.46-23.13c0,0,6.15,24.79,43.84,43.07l-1.65-5,6.89,5.67c3.5-1.83,7.5,2.32,7.5,2.32s2.32-5.44,6.65-3.68a6.77,6.77,0,0,1,1.89,1.15A75.29,75.29,0,0,0,423.1,202.78Z" transform="translate(1543.73 1917.53)"/><ellipse class="cls-11" cx="332.1" cy="196.18" rx="3.25" ry="3.25" transform="translate(1563.65 2340.26) rotate(-66.54)"/><circle class="cls-11" cx="336.49" cy="194.27" r="3.25" transform="translate(1568.05 2343.13) rotate(-66.54)"/><circle class="cls-11" cx="338.23" cy="190.25" r="3.25" transform="translate(1572.78 2342.31) rotate(-66.54)"/><path class="cls-11" d="M343.46,183.46a4.16,4.16,0,1,1-5.47,2.16A4.17,4.17,0,0,1,343.46,183.46Z" transform="translate(1543.73 1917.53)"/><circle class="cls-11" cx="348.37" cy="179.79" r="3.25" transform="translate(1588.37 2345.19) rotate(-66.52)"/><ellipse class="cls-11" cx="346.42" cy="184.27" rx="3.25" ry="3.26" transform="translate(1583.2 2346.23) rotate(-66.54)"/><ellipse class="cls-11" cx="370.66" cy="201.6" rx="5.27" ry="5.28" transform="translate(1667.71 2461.45) rotate(-82.76)"/><ellipse class="cls-11" cx="375.64" cy="207.55" rx="5.27" ry="5.28" transform="translate(1666.27 2471.66) rotate(-82.78)"/><path class="cls-11" d="M387.92,209.11a5.28,5.28,0,1,1-4.58-5.9A5.28,5.28,0,0,1,387.92,209.11Z" transform="translate(1543.73 1917.53)"/><path class="cls-11" d="M395.65,213.52A6.75,6.75,0,1,1,389.8,206,6.75,6.75,0,0,1,395.65,213.52Z" transform="translate(1543.73 1917.53)"/><ellipse class="cls-11" cx="403.59" cy="219.48" rx="5.27" ry="5.28" transform="translate(1678.64 2509.66) rotate(-82.75)"/><ellipse class="cls-11" cx="395.74" cy="218.48" rx="5.27" ry="5.28" transform="translate(1672.79 2501.01) rotate(-82.75)"/><path class="cls-11" d="M355,178.55a3.61,3.61,0,1,1-1-5A3.6,3.6,0,0,1,355,178.55Z" transform="translate(1543.73 1917.53)"/><ellipse class="cls-11" cx="353.23" cy="181.71" rx="3.6" ry="3.6" transform="translate(1551.02 2294.48) rotate(-56.66)"/><path class="cls-11" d="M360.29,186.37a3.61,3.61,0,1,1-1-5A3.61,3.61,0,0,1,360.29,186.37Z" transform="translate(1543.73 1917.53)"/><path class="cls-11" d="M363.71,191.39a4.61,4.61,0,1,1-1.32-6.38A4.61,4.61,0,0,1,363.71,191.39Z" transform="translate(1543.73 1917.53)"/><circle class="cls-11" cx="366.78" cy="197.43" r="3.6" transform="translate(1543.8 2312.52) rotate(-56.61)"/><ellipse class="cls-11" cx="362.26" cy="194.45" rx="3.6" ry="3.61" transform="translate(1544.44 2307.77) rotate(-56.66)"/><path class="cls-16" d="M365,232.63a3,3,0,0,1-1.53,1.91,6.49,6.49,0,0,1-2.28.54c-0.37,0-.76.06-1.11,0.08s-0.68.12-1.07,0.18a4,4,0,0,1-4.2-1.79,5,5,0,0,0-.66-0.81c-0.26-.26-0.53-0.54-0.77-0.82a6,6,0,0,1-1.25-2,3.05,3.05,0,0,1,.26-2.44,2.91,2.91,0,0,0,.17,2.2,6.53,6.53,0,0,0,1.36,1.62l0.81,0.72a6.18,6.18,0,0,1,.8.85,3.41,3.41,0,0,0,1.51,1.25,3.5,3.5,0,0,0,1.92.23c0.36,0,.72-0.1,1.15-0.12s0.74,0,1.1,0a7.12,7.12,0,0,0,2.11-.21A2.78,2.78,0,0,0,365,232.63Z" transform="translate(1543.73 1917.53)"/><path class="cls-17" d="M352.21,229.35s2.37,0.47,2.22,2.69A3.25,3.25,0,0,1,352.21,229.35Z" transform="translate(1543.73 1917.53)"/><path class="cls-17" d="M363.86,234.09s-2-1.32-3.47.37A3.25,3.25,0,0,0,363.86,234.09Z" transform="translate(1543.73 1917.53)"/><path class="cls-18" d="M360.27,231.57a2,2,0,0,1-3.74-1.52c0.37-.92.69,0.71,1.72,1.13S360.64,230.65,360.27,231.57Z" transform="translate(1543.73 1917.53)"/><g class="cls-19"><path class="cls-16" d="M371.15,212.13a12.77,12.77,0,0,0-3.05,3.77,17.7,17.7,0,0,0-1.73,4.57c-0.41,1.6-.73,3.21-1,4.84s-0.49,3.25-.61,4.89a28.91,28.91,0,0,1,.24-4.93,47.08,47.08,0,0,1,.9-4.9,16.73,16.73,0,0,1,1.89-4.67A10.74,10.74,0,0,1,371.15,212.13Z" transform="translate(1543.73 1917.53)"/></g><path class="cls-18" d="M364.65,211.77s-3.22,12.11-4.87,14.95,0.25,1.33.83-.23,4.14-12.58,4.87-14.37S365.29,209.45,364.65,211.77Z" transform="translate(1543.73 1917.53)"/><path class="cls-17" d="M351.08,210.34a3.7,3.7,0,1,1-2-4.82A3.7,3.7,0,0,1,351.08,210.34Z" transform="translate(1543.73 1917.53)"/><circle class="cls-20" cx="347.65" cy="208.94" r="1.48" transform="translate(1566.74 2369.63) rotate(-67.84)"/><circle class="cls-3" cx="346.84" cy="207.02" r="1.15" transform="translate(1568.02 2367.68) rotate(-67.84)"/><ellipse class="cls-17" cx="382.89" cy="223.3" rx="3.7" ry="3.7" transform="translate(1575.4 2411.22) rotate(-67.84)"/><circle class="cls-20" cx="382.89" cy="223.3" r="1.48" transform="translate(1575.4 2411.22) rotate(-67.84)"/><circle class="cls-3" cx="384.82" cy="222.49" r="1.15" transform="translate(1577.35 2412.49) rotate(-67.84)"/><path class="cls-21" d="M356.32,203.78s-4-8.52-14.55-5.27C341.77,198.51,351.48,198,356.32,203.78Z" transform="translate(1543.73 1917.53)"/><path class="cls-21" d="M378.77,212.92s8.79-3.33,14.09,6.39C392.86,219.31,386.24,212.19,378.77,212.92Z" transform="translate(1543.73 1917.53)"/><path class="cls-22" d="M345.51,234.19c-2.14,5.24,1.13,11.3,6.48,13.48s11.91,0.15,14-5.07a1,1,0,0,0-.5-1.43l-18.68-7.61A0.9,0.9,0,0,0,345.51,234.19Z" transform="translate(1543.73 1917.53)"/><path class="cls-16" d="M348.85,248.89a2.2,2.2,0,0,1,1.48-.53,4.13,4.13,0,0,1,1.56.28,4.79,4.79,0,0,1,2.36,1.92c-1-.3-1.84-0.72-2.7-1a11.59,11.59,0,0,0-1.29-.43A5.57,5.57,0,0,0,348.85,248.89Z" transform="translate(1543.73 1917.53)"/><text class="cls-23" transform="matrix(0.94, 0.35, -0.35, 0.94, 1791.72, 2198.96)">She<tspan x="43.45" y="0">i</tspan><tspan x="49.43" y="0">la N</tspan><tspan x="94.02" y="0">e</tspan><tspan x="107.45" y="0">w</tspan><tspan x="126.91" y="0">some</tspan></text><text class="cls-23" transform="translate(1753.06 2210.4) rotate(22.16)">S<tspan class="cls-24" x="15.34" y="0">om</tspan><tspan class="cls-24" x="37.4" y="0">e</tspan><tspan class="cls-24" x="45.37" y="0">times </tspan><tspan class="cls-24" x="87.83" y="0">t</tspan><tspan class="cls-24" x="93.15" y="0">hings in li</tspan><tspan class="cls-24" x="158.71" y="0">f</tspan><tspan class="cls-24" x="163.64" y="0">e don’t go </tspan><tspan class="cls-24"><tspan x="1.73" y="16.8">as </tspan><tspan x="21.49" y="16.8">p</tspan><tspan x="30.45" y="16.8">l</tspan><tspan x="33.93" y="16.8">a</tspan><tspan x="42.46" y="16.8">nned. When I </tspan><tspan x="138.6" y="16.8">w</tspan><tspan x="150.37" y="16.8">as eight </tspan><tspan x="3.47" y="33.6">y</tspan><tspan x="11.28" y="33.6">ears old, I </tspan><tspan x="83.07" y="33.6">r</tspan><tspan x="88.52" y="33.6">ememb</tspan><tspan x="141.44" y="33.6">e</tspan><tspan x="149.67" y="33.6">r si</tspan><tspan x="170.83" y="33.6">t</tspan><tspan x="175.55" y="33.6">ting at </tspan><tspan x="5.2" y="50.4">t</tspan><tspan x="10.52" y="50.4">he c</tspan><tspan x="39.82" y="50.4">r</tspan><tspan x="45.27" y="50.4">eek </tspan><tspan x="74.36" y="50.4">w</tspan><tspan x="85.55" y="50.4">i</tspan><tspan x="89.48" y="50.4">t</tspan><tspan x="94.8" y="50.4">h </tspan><tspan x="107.58" y="50.4">m</tspan><tspan x="120.69" y="50.4">y si</tspan><tspan x="143.94" y="50.4">s</tspan><tspan x="151.04" y="50.4">t</tspan><tspan x="156.08" y="50.4">e</tspan><tspan x="164.31" y="50.4">rs. </tspan><tspan x="184.76" y="50.4">W</tspan><tspan x="199.28" y="50.4">e </tspan><tspan x="212.01" y="50.4">h</tspan><tspan x="221.15" y="50.4">ad </tspan><tspan x="6.93" y="67.2">a </tspan><tspan x="19.8" y="67.2">t</tspan><tspan x="25.19" y="67.2">on </tspan><tspan x="46.72" y="67.2">o</tspan><tspan x="54.98" y="67.2">f </tspan><tspan x="64.25" y="67.2">e</tspan><tspan x="72.36" y="67.2">x</tspan><tspan x="80.34" y="67.2">p</tspan><tspan x="89.44" y="67.2">e</tspan><tspan x="97.67" y="67.2">rien</tspan><tspan x="124.86" y="67.2">c</tspan><tspan x="132.64" y="67.2">e being a</tspan><tspan x="197.76" y="67.2">r</tspan><tspan x="203.55" y="67.2">o</tspan><tspan x="212.08" y="67.2">u</tspan><tspan x="220.32" y="67.2">n</tspan><tspan x="228.63" y="67.2">d </tspan><tspan x="8.67" y="84">w</tspan><tspan x="20.44" y="84">a</tspan><tspan x="29.11" y="84">t</tspan><tspan x="34.15" y="84">e</tspan><tspan x="42.38" y="84">r — </tspan><tspan x="69.5" y="84">o</tspan><tspan x="77.97" y="84">r so </tspan><tspan x="108.15" y="84">w</tspan><tspan x="119.36" y="84">e </tspan><tspan x="132.09" y="84">t</tspan><tspan x="137.41" y="84">h</tspan><tspan x="145.99" y="84">o</tspan><tspan x="154.52" y="84">ught. </tspan><tspan x="193.94" y="84">T</tspan><tspan x="202.73" y="84">he </tspan><tspan x="10.4" y="100.8">w</tspan><tspan x="22.17" y="100.8">a</tspan><tspan x="30.84" y="100.8">t</tspan><tspan x="35.88" y="100.8">e</tspan><tspan x="44.11" y="100.8">r </tspan><tspan x="54.46" y="100.8">w</tspan><tspan x="66.23" y="100.8">as c</tspan><tspan x="93.98" y="100.8">a</tspan><tspan x="102.84" y="100.8">lm </tspan><tspan x="123.84" y="100.8">a</tspan><tspan x="132.37" y="100.8">n</tspan><tspan x="140.67" y="100.8">d i</tspan><tspan x="158.04" y="100.8">n</tspan><tspan x="166.35" y="100.8">viting. Liz, </tspan><tspan x="12.13" y="117.6">m</tspan><tspan x="25.24" y="117.6">y ol</tspan><tspan x="49.91" y="117.6">d</tspan><tspan x="58.94" y="117.6">e</tspan><tspan x="67.17" y="117.6">r si</tspan><tspan x="88.33" y="117.6">s</tspan><tspan x="95.43" y="117.6">t</tspan><tspan x="100.47" y="117.6">e</tspan><tspan class="cls-25" x="108.71" y="117.6">r</tspan><tspan x="113.59" y="117.6">, da</tspan><tspan x="138.92" y="117.6">r</tspan><tspan x="144.36" y="117.6">ed me </tspan><tspan x="192.37" y="117.6">t</tspan><tspan x="197.76" y="117.6">o jump </tspan><tspan x="13.87" y="134.4">in. “No </tspan><tspan x="63.22" y="134.4">w</tspan><tspan x="74.99" y="134.4">a</tspan><tspan class="cls-25" x="84.09" y="134.4">y</tspan><tspan x="91.13" y="134.4">,</tspan><tspan x="93.79" y="134.4">” I </tspan><tspan x="112.2" y="134.4">y</tspan><tspan x="120.01" y="134.4">el</tspan><tspan x="132.03" y="134.4">l</tspan><tspan x="136.14" y="134.4">ed. Sa</tspan><tspan x="179.33" y="134.4">r</tspan><tspan x="185.13" y="134.4">a, </tspan><tspan x="201.22" y="134.4">t</tspan><tspan x="206.54" y="134.4">he </tspan><tspan x="15.6" y="151.2">y</tspan><tspan x="23.41" y="151.2">o</tspan><tspan x="31.94" y="151.2">u</tspan><tspan x="40.18" y="151.2">ng</tspan><tspan x="58.01" y="151.2">e</tspan><tspan x="66.24" y="151.2">r dashed </tspan><tspan x="131.93" y="151.2">aw</tspan><tspan x="152.09" y="151.2">a</tspan><tspan x="161.19" y="151.2">y in</tspan><tspan x="186.14" y="151.2">t</tspan><tspan x="191.53" y="151.2">o </tspan><tspan x="204.48" y="151.2">t</tspan><tspan x="209.79" y="151.2">he </tspan><tspan x="17.33" y="168">w</tspan><tspan x="29.11" y="168">a</tspan><tspan x="37.77" y="168">t</tspan><tspan x="42.81" y="168">e</tspan><tspan class="cls-25" x="51.04" y="168">r</tspan><tspan x="55.93" y="168">. “Ouch!” she cried. H</tspan><tspan x="200.93" y="168">e</tspan><tspan x="209.16" y="168">r </tspan><tspan x="19.07" y="184.8">head dip</tspan><tspan x="80.7" y="184.8">p</tspan><tspan x="89.8" y="184.8">ed bel</tspan><tspan x="133.02" y="184.8">o</tspan><tspan x="141.21" y="184.8">w </tspan><tspan x="157.46" y="184.8">t</tspan><tspan x="162.78" y="184.8">he sur</tspan><tspan x="205.7" y="184.8">f</tspan><tspan x="210.56" y="184.8">a</tspan><tspan x="219.23" y="184.8">c</tspan><tspan x="227.01" y="184.8">e </tspan><tspan x="20.8" y="201.6">a</tspan><tspan x="29.33" y="201.6">n</tspan><tspan x="37.63" y="201.6">d so did </tspan><tspan x="97.52" y="201.6">m</tspan><tspan x="110.62" y="201.6">y </tspan><tspan x="123.06" y="201.6">s</tspan><tspan x="130.15" y="201.6">t</tspan><tspan x="135.54" y="201.6">omach. </tspan></tspan></text></svg>