<svg xmlns="http://www.w3.org/2000/svg" viewBox="0 0 3487.78 3524.95"><defs><style>.cls-1{isolation:isolate;}.cls-2{fill:#f6c491;}.cls-3{fill:#f6c487;}.cls-4{fill:#103754;}.cls-5{fill:#dcefee;}.cls-6{fill:#6b7887;}.cls-13,.cls-7{fill:none;}.cls-7{stroke:#214d68;stroke-width:2.26px;}.cls-8{fill:#fdd6ad;}.cls-9{fill:#e44822;}.cls-10{fill:#e2d0b3;}.cls-11{fill:#f9e376;stroke:#c6b86d;stroke-width:0.74px;}.cls-12{fill:#ffefab;stroke:#fff;stroke-width:0.37px;}.cls-14,.cls-24{opacity:0.15;}.cls-14{mix-blend-mode:multiply;}.cls-15{fill:#596972;}.cls-16{fill:#c43232;}.cls-17{fill:#e3574c;}.cls-18,.cls-20{fill:#ffe8d4;}.cls-19{fill:#a297db;}.cls-20{stroke:#ffe8d4;stroke-width:0.25px;}.cls-21{fill:#ddb597;}.cls-22{fill:#fff;}.cls-23{fill:#02211f;}.cls-24{fill:#3f4244;}.cls-25{fill:#ccbea9;}.cls-26{fill:#ded0b3;}.cls-27{fill:#20c2c7;}</style></defs><title>moviereview</title><g class="cls-1"><g id="Layer_6" data-name="Layer 6"><path class="cls-2" d="M205,865.61S61.11,673.43,63,580.24s84.16-52.95,84.16-52.95L398.54,302.24s88.21,169.59,93.34,184.67-20.76,397.77-20.76,397.77L455,953.38,228.68,934.62Z" transform="translate(885.81 1895.7)"/><path class="cls-3" d="M35.93,421.45A24.37,24.37,0,0,0,25.77,429c-17,20.21-4.46,61.57,5.51,83,0,0,31.75,68.22,31.75,68.22,8.29,17.8,22.28,28.84,31.25,24.66l34.39-16c9-4.18,9.53-22,1.24-39.79L98.16,480.89C90.6,464.65,61.18,412.24,35.93,421.45Z" transform="translate(885.81 1895.7)"/><path class="cls-3" d="M70,257.56c-35.11,5.17-21.39,69.8-10.79,92.57l31.75,68.22c8.29,17.79,23.43,28.3,33.84,23.46l39.88-18.56c10.4-4.84,12.12-23.2,3.83-41,0,0-31.75-68.22-31.76-68.22-10-21.45-26.16-49.48-51-55.38A42,42,0,0,0,70,257.56Z" transform="translate(885.81 1895.7)"/><path class="cls-3" d="M132.74,137.49a30.58,30.58,0,0,0-5.68,2.71c-28.1,17-18.33,67.27-6.86,91.9l31.75,68.22c8.29,17.79,23.8,28.14,34.64,23.09l41.55-19.34c10.84-5,12.91-23.57,4.63-41.36L201,194.48C191.26,173.52,162.57,127,132.74,137.49Z" transform="translate(885.81 1895.7)"/><path class="cls-4" d="M38.61,599.68a34.11,34.11,0,0,0,20.88,43.48l277.68,97.59a34.1,34.1,0,0,0,43.49-20.87L580.39,151.57a34.1,34.1,0,0,0-20.86-43.49L281.84,10.48a34.11,34.11,0,0,0-43.49,20.87Z" transform="translate(885.81 1895.7)"/><path class="cls-5" d="M112.35,476c-6.25,17.77,4.32,37.67,23.6,44.45l218.22,76.69c19.29,6.77,40-2.13,46.22-19.91l135.55-385.7c6.25-17.77-4.32-37.68-23.6-44.45L294.11,70.42c-19.27-6.77-40,2.15-46.21,19.91Z" transform="translate(885.81 1895.7)"/><path class="cls-6" d="M182.55,615.59c-5.3,15.08-.12,30.64,11.57,34.74l46.39,16.3c11.69,4.11,25.45-4.78,30.76-19.86h0c5.3-15.08.13-30.64-11.56-34.75l-46.4-16.31c-11.69-4.1-25.46,4.79-30.76,19.88h0Z" transform="translate(885.81 1895.7)"/><path class="cls-7" d="M182.55,615.59c-5.3,15.08-.12,30.64,11.57,34.74l46.39,16.3c11.69,4.11,25.45-4.78,30.76-19.86h0c5.3-15.08.13-30.64-11.56-34.75l-46.4-16.31c-11.69-4.1-25.46,4.79-30.76,19.88h0Z" transform="translate(885.81 1895.7)"/><path class="cls-8" d="M468.46,883.88l89.36-220.31L583,463.63,570.11,266.8s-79.75-24-86.43,210.39c0,0-80.82,170.83-86.1,205C393.14,711,319.46,871.13,468.46,883.88Z" transform="translate(885.81 1895.7)"/><polygon class="cls-9" points="1377.29 2776.64 1078.36 2756.35 1032.61 3144.26 1362.89 3243.57 1377.29 2776.64"/><polygon class="cls-10" points="1380.91 2812.79 1071.35 2789.31 1025.6 3177.21 1366.52 3279.72 1380.91 2812.79"/><path class="cls-11" d="M253.64,940.68a13.59,13.59,0,0,1,11.44,15.45l-4.84,32.5a13.59,13.59,0,0,1-15.45,11.45L210.67,995a13.59,13.59,0,0,1-11.45-15.45l4.83-32.5a13.6,13.6,0,0,1,15.45-11.45Z" transform="translate(885.81 1895.7)"/><path class="cls-12" d="M247.76,948.1a9.88,9.88,0,0,1,8.31,11.22l-3.51,23.61a9.87,9.87,0,0,1-11.22,8.32l-24.8-3.69a9.88,9.88,0,0,1-8.31-11.22l3.51-23.61A9.88,9.88,0,0,1,223,944.42Z" transform="translate(885.81 1895.7)"/><rect class="cls-13" x="-438.65" y="-1356" width="2593.44" height="2445.55" transform="translate(1364.09 2543.37) rotate(-55.24)"/></g><g id="Layer_2" data-name="Layer 2"><g class="cls-14"><path d="M306.37,100.3h113.9a5.48,5.48,0,0,1,5.48,5.48V292a5.47,5.47,0,0,1-5.47,5.47H306.37A5.48,5.48,0,0,1,300.9,292V105.78a5.48,5.48,0,0,1,5.48-5.48Z" transform="translate(938.22 2368.24) rotate(-70.05)"/></g><path class="cls-15" d="M441.55,283.05a5.47,5.47,0,0,1-7,3.27l-175-63.54a5.47,5.47,0,0,1-3.28-7L295.1,108.71a5.47,5.47,0,0,1,7-3.28l175,63.54a5.48,5.48,0,0,1,3.28,7Z" transform="translate(885.81 1895.7)"/><g class="cls-14"><path d="M192.8,493l8.05-22.19c2.68-7.38-2.55-16-11.68-19.36L185.24,450c-9.13-3.32-18.7,0-21.38,7.35l-8.05,22.19Z" transform="translate(885.81 1895.7)"/><path d="M234.52,508.1l8.05-22.19c2.68-7.38-2.55-16-11.68-19.36L227,465.13c-9.13-3.31-18.7,0-21.38,7.35l-8.05,22.19Z" transform="translate(885.81 1895.7)"/><path d="M276.24,523.25l8.05-22.19c2.68-7.38-2.55-16-11.68-19.36l-3.94-1.43c-9.13-3.31-18.7,0-21.38,7.36l-8.05,22.19Z" transform="translate(885.81 1895.7)"/><path d="M318,538.39L326,516.2c2.68-7.38-2.55-16-11.68-19.35l-3.94-1.43c-9.13-3.31-18.7,0-21.38,7.35L281,525Z" transform="translate(885.81 1895.7)"/><path d="M359.68,553.54l8.05-22.19c2.68-7.38-2.55-16-11.68-19.36l-3.94-1.43c-9.13-3.31-18.7,0-21.38,7.36l-8.05,22.19Z" transform="translate(885.81 1895.7)"/><path d="M174.3,486.24l4-10.94c2.68-7.38-2.55-16-11.68-19.36l-3.94-1.43c-9.13-3.31-18.7,0-21.38,7.36l-4,10.94Z" transform="translate(885.81 1895.7)"/><path d="M216,501.39l4-10.94c2.68-7.38-2.55-16-11.68-19.36l-3.93-1.43c-9.13-3.31-18.7,0-21.38,7.36L179,488Z" transform="translate(885.81 1895.7)"/><path d="M257.74,516.53l4-10.94c2.68-7.38-2.55-16-11.68-19.36l-3.93-1.43c-9.13-3.31-18.7,0-21.38,7.36l-4,10.94Z" transform="translate(885.81 1895.7)"/><path d="M299.47,531.68l4-10.94c2.68-7.38-2.55-16-11.69-19.36L287.82,500c-9.13-3.31-18.7,0-21.38,7.36l-4,10.94Z" transform="translate(885.81 1895.7)"/><path d="M341.18,546.82l4-10.94c2.68-7.38-2.55-16-11.68-19.36l-3.94-1.43c-9.13-3.32-18.7,0-21.38,7.36l-4,10.94Z" transform="translate(885.81 1895.7)"/><path d="M382.9,562l4-10.94c2.68-7.38-2.55-16-11.68-19.36l-3.93-1.43c-9.13-3.32-18.7,0-21.38,7.36l-4,10.94Z" transform="translate(885.81 1895.7)"/></g><path class="cls-16" d="M197.8,490l8.05-22.19c2.68-7.38-2.55-16-11.68-19.36L190.24,447c-9.13-3.32-18.7,0-21.38,7.35l-8.05,22.19Z" transform="translate(885.81 1895.7)"/><path class="cls-16" d="M239.52,505.1l8.05-22.19c2.68-7.38-2.55-16-11.68-19.36L232,462.13c-9.13-3.31-18.7,0-21.38,7.35l-8.05,22.19Z" transform="translate(885.81 1895.7)"/><path class="cls-16" d="M281.24,520.25l8.05-22.19c2.68-7.38-2.55-16-11.68-19.36l-3.94-1.43c-9.13-3.31-18.7,0-21.38,7.36l-8.05,22.19Z" transform="translate(885.81 1895.7)"/><path class="cls-16" d="M323,535.39L331,513.2c2.68-7.38-2.55-16-11.68-19.35l-3.94-1.43c-9.13-3.31-18.7,0-21.38,7.35L286,522Z" transform="translate(885.81 1895.7)"/><path class="cls-16" d="M364.68,550.54l8.05-22.19c2.68-7.38-2.55-16-11.68-19.36l-3.94-1.43c-9.13-3.31-18.7,0-21.38,7.36l-8.05,22.19Z" transform="translate(885.81 1895.7)"/><path class="cls-17" d="M179.3,483.24l4-10.94c2.68-7.38-2.55-16-11.68-19.36l-3.94-1.43c-9.13-3.31-18.7,0-21.38,7.36l-4,10.94Z" transform="translate(885.81 1895.7)"/><path class="cls-17" d="M221,498.39l4-10.94c2.68-7.38-2.55-16-11.68-19.36l-3.93-1.43c-9.13-3.31-18.7,0-21.38,7.36L184,485Z" transform="translate(885.81 1895.7)"/><path class="cls-17" d="M262.74,513.53l4-10.94c2.68-7.38-2.55-16-11.68-19.36l-3.93-1.43c-9.13-3.31-18.7,0-21.38,7.36l-4,10.94Z" transform="translate(885.81 1895.7)"/><path class="cls-17" d="M304.47,528.68l4-10.94c2.68-7.38-2.55-16-11.69-19.36L292.82,497c-9.13-3.31-18.7,0-21.38,7.36l-4,10.94Z" transform="translate(885.81 1895.7)"/><path class="cls-17" d="M346.18,543.82l4-10.94c2.68-7.38-2.55-16-11.68-19.36l-3.94-1.43c-9.13-3.32-18.7,0-21.38,7.36l-4,10.94Z" transform="translate(885.81 1895.7)"/><path class="cls-17" d="M387.9,559l4-10.94c2.68-7.38-2.55-16-11.68-19.36l-3.93-1.43c-9.13-3.32-18.7,0-21.38,7.36l-4,10.94Z" transform="translate(885.81 1895.7)"/><path class="cls-18" d="M376,276.81s2.28-18.22,5.1-33.27c9.58-3,4.11-8.47,2.13-10.13,0.33-1.36.66-2.63,1-3.75,4.54-1.91,22.63,21.07,9.61,41.2,0,0,32.07-1.31,37.2,3.07s2,13.7-5.12,16.69c10.27,2.33,12.93,18.51-4.39,20.09,0,0,5.84,6.92,4.06,12.32s-42.57,9-52.84-4.69C365.13,301.24,376,276.81,376,276.81Z" transform="translate(885.81 1895.7)"/><path class="cls-19" d="M381.08,243.53c0.69-3.67,1.41-7.15,2.13-10.13C386.49,233.18,393,243.06,381.08,243.53Z" transform="translate(885.81 1895.7)"/><path class="cls-4" d="M379.75,272.69s-157.11-9.8-187-15.1c0,0-7.92,47.56-9.33,59.49,0,0,182.46,3.88,194.35,1.77C377.79,318.85,382.37,285.79,379.75,272.69Z" transform="translate(885.81 1895.7)"/><path class="cls-4" d="M372.17,270.19s-160-11.87-189.86-17.18c0,0-13.58,56-15,67.94,0,0,187.3,1.5,199.19-.61C366.51,320.33,374.79,283.28,372.17,270.19Z" transform="translate(885.81 1895.7)"/><path class="cls-20" d="M379.75,272.69s-157.11-9.8-187-15.1c0,0-7.92,47.56-9.33,59.49,0,0,182.46,3.88,194.35,1.77C377.79,318.85,382.37,285.79,379.75,272.69Z" transform="translate(885.81 1895.7)"/><path class="cls-4" d="M372.17,270.19s-160-11.87-189.86-17.18c0,0-13.58,56-15,67.94,0,0,187.3,1.5,199.19-.61C366.51,320.33,374.79,283.28,372.17,270.19Z" transform="translate(885.81 1895.7)"/><path class="cls-18" d="M258.93,430.67S256.59,450,253.65,466c-10.21,3.14-4.34,9-2.23,10.77-0.35,1.44-.7,2.79-1,4-4.84,2-24.27-22.53-10.46-43.88,0,0-34.23,1.24-39.73-3.44s-2.17-14.58,5.39-17.73c-11-2.52-13.89-19.75,4.59-21.35,0,0-6.27-7.39-4.4-13.13s45.41-9.32,56.43,5.24C270.4,404.72,258.93,430.67,258.93,430.67Z" transform="translate(885.81 1895.7)"/><path class="cls-21" d="M253.65,466c-0.72,3.9-1.47,7.6-2.23,10.77C247.92,477,240.87,466.48,253.65,466Z" transform="translate(885.81 1895.7)"/><path class="cls-22" d="M258.55,433.7s157.11,9.8,187,15.1c0,0,7.92-47.56,9.33-59.49,0,0-182.46-3.88-194.35-1.77C260.51,387.54,255.94,420.61,258.55,433.7Z" transform="translate(885.81 1895.7)"/><path class="cls-4" d="M266.13,436.21s160,11.87,189.86,17.18c0,0,13.58-56,15-67.94,0,0-187.3-1.5-199.19.61C271.79,386.06,263.52,423.11,266.13,436.21Z" transform="translate(885.81 1895.7)"/><path class="cls-23" d="M284.75,433.86s2.44-33.34,4.78-44.75C289.53,389.11,288.28,425.3,284.75,433.86Z" transform="translate(885.81 1895.7)"/><circle class="cls-23" cx="275.08" cy="426.82" r="3.61" transform="translate(742.95 2034.14) rotate(-22.59)"/><path class="cls-24" d="M380.55,346.6h-6.48v-8.45a1,1,0,0,0-1-1H323.86a1,1,0,0,0-1,1v11.37a10.8,10.8,0,0,0-5.79-1.71,11,11,0,0,0-6.06,1.87V337.9a1,1,0,0,0-1-1H260.82a1,1,0,0,0-1,1v8.45h-6.65a1,1,0,0,0-1,1v10.09a1,1,0,0,0,1,1h6.65v9.68a1,1,0,0,0,1,1H310a1,1,0,0,0,1-1v-9.44h0.21c0-3.19,3.09-5.57,5.85-5.57a5.84,5.84,0,0,1,5.67,5.57h0.12v9.68a1,1,0,0,0,1,1h49.22a1,1,0,0,0,1-1v-9.68h6.48a1,1,0,0,0,1-1V347.58A1,1,0,0,0,380.55,346.6Z" transform="translate(885.81 1895.7)"/><path class="cls-25" d="M1141.76,2239.05h6.89a1,1,0,0,1,1,1v10.09a1,1,0,0,1-1,1h-6.89a1,1,0,0,1-1-1V2240A1,1,0,0,1,1141.76,2239.05Z"/><path class="cls-25" d="M1262.23,2240.57h6.89a1,1,0,0,1,1,1v10.09a1,1,0,0,1-1,1h-6.89a1,1,0,0,1-1-1v-10.09A1,1,0,0,1,1262.23,2240.57Z"/><path class="cls-26" d="M1149.38,2229.62h49.22a1,1,0,0,1,1,1v30.19a1,1,0,0,1-1,1h-49.22a1,1,0,0,1-1-1V2230.6A1,1,0,0,1,1149.38,2229.62Z"/><path class="cls-26" d="M1212.43,2229.86h49.22a1,1,0,0,1,1,1V2261a1,1,0,0,1-1,1h-49.22a1,1,0,0,1-1-1v-30.19A1,1,0,0,1,1212.43,2229.86Z"/><path class="cls-26" d="M330.79,355.66h-5.28a5.84,5.84,0,0,0-5.67-5.57c-2.76,0-5.85,2.38-5.85,5.57h-5.28c0-5.78,5.2-10.85,11.13-10.85A11,11,0,0,1,330.79,355.66Z" transform="translate(885.81 1895.7)"/><rect class="cls-17" x="1154.64" y="2234.79" width="39.38" height="23.13" rx="0.94" ry="0.94"/><rect class="cls-27" x="1217.09" y="2234.88" width="39.91" height="23.43" rx="0.95" ry="0.95"/></g></g></svg>