<svg xmlns="http://www.w3.org/2000/svg" viewBox="0 0 3287.69 3349.34"><defs><style>.cls-1{isolation:isolate;}.cls-2{fill:#f6c49f;}.cls-3{fill:#103754;}.cls-4{fill:#fff;}.cls-5{fill:#6b7887;}.cls-10,.cls-6{fill:none;}.cls-6{stroke:#214d68;stroke-width:2.26px;}.cls-7{fill:#fdd6b7;}.cls-8{fill:#dd3514;}.cls-9{fill:#e44822;}.cls-11{fill:#cfd1d2;}.cls-12,.cls-21{opacity:0.15;}.cls-12{mix-blend-mode:multiply;}.cls-13{fill:#596972;}.cls-14{fill:#c43232;}.cls-15{fill:#e3574c;}.cls-16,.cls-18{fill:#ffe8d4;}.cls-17{fill:#a297db;}.cls-18{stroke:#ffe8d4;stroke-width:0.25px;}.cls-19{fill:#ddb597;}.cls-20{fill:#02211f;}.cls-21{fill:#3f4244;}.cls-22{fill:#ccbea9;}.cls-23{fill:#ded0b3;}.cls-24{fill:#20c2c7;}</style></defs><title>moviereview</title><g class="cls-1"><g id="Layer_1" data-name="Layer 1"><path class="cls-2" d="M212.65,824S71.91,639.71,72.52,553.51s73.2-45.13,73.2-45.13L375.34,297.15s83.68,155.73,88.6,169.6-21.55,362.12-21.55,362.12l-9.13,67.69-197.82-9Z" transform="translate(1543.73 1917.53)"/><path class="cls-2" d="M41.52,411.89a23.88,23.88,0,0,0-9.3,7.15c-10.38,12.76.35,55.12,9.83,74.79,0,0,26.5,64.56,26.5,64.56,7.89,16.35,21,26.39,29.21,22.42l31.6-15.23c8.25-4,8.54-20.46.65-36.81L99.81,466.08C92.62,451.17,60,404.05,41.52,411.89Z" transform="translate(1543.73 1917.53)"/><path class="cls-2" d="M71.19,260.73a13.48,13.48,0,0,0-5.72,3.37c-8.54,8.67-8.48,22.74-8.18,34.07,0.33,12.53,1.32,25.2,4.79,37.29,3.41,11.87,9,23.13,13.65,34.55,5.24,12.91,10.57,25.8,16.62,38.35,7.88,16.35,22,25.87,31.59,21.27L160.58,412c9.56-4.6,10.91-21.6,3-38L133.4,311.31c-7-13-16.38-24.19-26.73-34.68-6.21-6.29-13.23-13.72-22-15.9A26.06,26.06,0,0,0,71.19,260.73Z" transform="translate(1543.73 1917.53)"/><path class="cls-2" d="M126,149a24.71,24.71,0,0,0-4.86,2.36c-7.65,5.12-9.94,16.36-10.86,25.27A123.08,123.08,0,0,0,111.62,211a106.17,106.17,0,0,0,5.48,19.57c8.21,20.81,19.74,40.81,29.56,61,0.92,1.9,1.86,3.8,2.79,5.7,8,16.3,22,26,31.23,21.56l35.53-16.86c9.27-4.39,10.32-21.19,2.35-37.48L188,201.91C178.63,182.71,143.87,142,126,149Z" transform="translate(1543.73 1917.53)"/><path class="cls-3" d="M52.12,578a31.54,31.54,0,0,0,18.45,40.61l254.84,95.62A31.54,31.54,0,0,0,366,695.8L561.74,174.22a31.54,31.54,0,0,0-18.45-40.61L288.44,38a31.55,31.55,0,0,0-40.61,18.45Z" transform="translate(1543.73 1917.53)"/><path class="cls-4" d="M122.69,465.12c-6.12,16.31,3.26,34.91,21,41.55l200.27,75.14c17.69,6.64,37-1.2,43.11-17.51l132.83-354c6.12-16.31-3.27-34.92-21-41.55L298.62,93.63c-17.68-6.63-37,1.21-43.1,17.52Z" transform="translate(1543.73 1917.53)"/><path class="cls-5" d="M184.89,595.52c-5.19,13.84-.71,28.32,10,32.35l42.58,16c10.73,4,23.62-3.92,28.82-17.76h0c5.19-13.84.71-28.32-10-32.35l-42.58-16c-10.73-4-23.63,3.94-28.82,17.78h0Z" transform="translate(1543.73 1917.53)"/><path class="cls-6" d="M184.89,595.52c-5.19,13.84-.71,28.32,10,32.35l42.58,16c10.73,4,23.62-3.92,28.82-17.76h0c5.19-13.84.71-28.32-10-32.35l-42.58-16c-10.73-4-23.63,3.94-28.82,17.78h0Z" transform="translate(1543.73 1917.53)"/><path class="cls-7" d="M435,824.2l84.77-200.87,20.8-185.19L536,229.73S459.51,241,456.25,457.87c0,0-72.61,159-77.06,190.63C375.44,675.16,297.11,814.27,435,824.2Z" transform="translate(1543.73 1917.53)"/><polygon class="cls-8" points="2004.9 2742.69 1744.85 2737.11 1698.06 3092.87 1963.26 3146.87 2004.9 2742.69"/><path class="cls-9" d="M538.58,325.9s-28.84,5.69-32-1.9,2.24-96.46,29.39-94.27C550.35,230.89,538.58,325.9,538.58,325.9Z" transform="translate(1543.73 1917.53)"/><path class="cls-9" d="M121.86,1266.87s3.25-371.44,72.22-357.23c0,0,56.74-26.8,96.63,7,0,0,84.71-42.83,104.68,5.64,0,0,81.17-47.6,79.36,56.46l6.81,418.68-356.2,34.38Z" transform="translate(1543.73 1917.53)"/><rect class="cls-10" x="-1030.68" y="-1482.75" width="2261.58" height="2398.36" transform="translate(1800.63 1890.58) rotate(-50.87)"/><rect class="cls-11" x="1709.66" y="1827.73" width="38.06" height="2.59"/><rect class="cls-11" x="1709.66" y="1832.44" width="38.06" height="2.59"/><rect class="cls-11" x="1709.66" y="1837.15" width="38.06" height="2.59"/><rect class="cls-11" x="1709.66" y="1841.86" width="38.06" height="2.59"/><rect class="cls-11" x="1709.66" y="1846.57" width="38.06" height="2.59"/><rect class="cls-11" x="1709.66" y="1851.28" width="38.06" height="2.59"/><rect class="cls-11" x="1709.66" y="1855.99" width="38.06" height="2.59"/></g><g id="Layer_2" data-name="Layer 2"><g class="cls-12"><path d="M420.81,311a5.24,5.24,0,0,1-6.78,3L247.87,249.54a5.24,5.24,0,0,1-3-6.78l39.44-101.65a5.24,5.24,0,0,1,6.78-3l166.16,64.48a5.24,5.24,0,0,1,3,6.78Z" transform="translate(1543.73 1917.53)"/></g><path class="cls-13" d="M425.81,308a5.24,5.24,0,0,1-6.78,3L252.87,246.54a5.24,5.24,0,0,1-3-6.78l39.44-101.65a5.24,5.24,0,0,1,6.78-3l166.16,64.48a5.24,5.24,0,0,1,3,6.78Z" transform="translate(1543.73 1917.53)"/><g class="cls-12"><path d="M183.21,503.91l8.17-21.06c2.72-7-2.11-15.41-10.77-18.77l-3.74-1.45c-8.67-3.36-17.9-.41-20.61,6.59l-8.17,21.06Z" transform="translate(1543.73 1917.53)"/><path d="M222.81,519.28L231,498.22c2.72-7-2.11-15.41-10.77-18.77L216.48,478c-8.67-3.36-17.9-.41-20.61,6.59l-8.17,21.06Z" transform="translate(1543.73 1917.53)"/><path d="M262.42,534.65l8.17-21.06c2.72-7-2.1-15.4-10.77-18.77l-3.74-1.45c-8.67-3.36-17.89-.41-20.61,6.59L227.3,521Z" transform="translate(1543.73 1917.53)"/><path d="M302,550L310.2,529c2.72-7-2.1-15.4-10.77-18.77l-3.74-1.45c-8.67-3.36-17.9-.42-20.62,6.59l-8.17,21.06Z" transform="translate(1543.73 1917.53)"/><path d="M341.63,565.39l8.17-21.06c2.72-7-2.11-15.41-10.77-18.77l-3.74-1.45c-8.66-3.36-17.89-.41-20.61,6.59l-8.17,21.06Z" transform="translate(1543.73 1917.53)"/><path d="M165.65,497.1l4-10.38c2.72-7-2.11-15.41-10.77-18.77l-3.74-1.45c-8.67-3.36-17.89-.42-20.61,6.59l-4,10.38Z" transform="translate(1543.73 1917.53)"/><path d="M205.25,512.47l4-10.38c2.72-7-2.1-15.41-10.77-18.77l-3.74-1.45c-8.67-3.36-17.89-.42-20.61,6.59l-4,10.38Z" transform="translate(1543.73 1917.53)"/><path d="M244.86,527.84l4-10.38c2.72-7-2.1-15.41-10.77-18.77l-3.73-1.45c-8.67-3.36-17.89-.42-20.61,6.59l-4,10.38Z" transform="translate(1543.73 1917.53)"/><path d="M284.47,543.21l4-10.38c2.72-7-2.11-15.41-10.78-18.77L274,512.6c-8.67-3.36-17.89-.41-20.61,6.59l-4,10.38Z" transform="translate(1543.73 1917.53)"/><path d="M324.07,558.57l4-10.38c2.72-7-2.11-15.41-10.77-18.77L313.59,528c-8.67-3.36-17.89-.41-20.61,6.59l-4,10.38Z" transform="translate(1543.73 1917.53)"/><path d="M363.67,573.94l4-10.38c2.72-7-2.1-15.41-10.77-18.77l-3.73-1.45c-8.67-3.36-17.89-.42-20.61,6.59l-4,10.38Z" transform="translate(1543.73 1917.53)"/></g><path class="cls-14" d="M188.21,500.91l8.17-21.06c2.72-7-2.11-15.41-10.77-18.77l-3.74-1.45c-8.67-3.36-17.9-.41-20.61,6.59l-8.17,21.06Z" transform="translate(1543.73 1917.53)"/><path class="cls-14" d="M227.81,516.28L236,495.22c2.72-7-2.11-15.41-10.77-18.77L221.48,475c-8.67-3.36-17.9-.41-20.61,6.59l-8.17,21.06Z" transform="translate(1543.73 1917.53)"/><path class="cls-14" d="M267.42,531.65l8.17-21.06c2.72-7-2.1-15.4-10.77-18.77l-3.74-1.45c-8.67-3.36-17.89-.41-20.61,6.59L232.3,518Z" transform="translate(1543.73 1917.53)"/><path class="cls-14" d="M307,547L315.2,526c2.72-7-2.1-15.4-10.77-18.77l-3.74-1.45c-8.67-3.36-17.9-.42-20.62,6.59l-8.17,21.06Z" transform="translate(1543.73 1917.53)"/><path class="cls-14" d="M346.63,562.39l8.17-21.06c2.72-7-2.11-15.41-10.77-18.77l-3.74-1.45c-8.66-3.36-17.89-.41-20.61,6.59l-8.17,21.06Z" transform="translate(1543.73 1917.53)"/><path class="cls-15" d="M170.65,494.1l4-10.38c2.72-7-2.11-15.41-10.77-18.77l-3.74-1.45c-8.67-3.36-17.89-.42-20.61,6.59l-4,10.38Z" transform="translate(1543.73 1917.53)"/><path class="cls-15" d="M210.25,509.47l4-10.38c2.72-7-2.1-15.41-10.77-18.77l-3.74-1.45c-8.67-3.36-17.89-.42-20.61,6.59l-4,10.38Z" transform="translate(1543.73 1917.53)"/><path class="cls-15" d="M249.86,524.84l4-10.38c2.72-7-2.1-15.41-10.77-18.77l-3.73-1.45c-8.67-3.36-17.89-.42-20.61,6.59l-4,10.38Z" transform="translate(1543.73 1917.53)"/><path class="cls-15" d="M289.47,540.21l4-10.38c2.72-7-2.11-15.41-10.78-18.77L279,509.6c-8.67-3.36-17.89-.41-20.61,6.59l-4,10.38Z" transform="translate(1543.73 1917.53)"/><path class="cls-15" d="M329.07,555.57l4-10.38c2.72-7-2.11-15.41-10.77-18.77L318.59,525c-8.67-3.36-17.89-.41-20.61,6.59l-4,10.38Z" transform="translate(1543.73 1917.53)"/><path class="cls-15" d="M368.67,570.94l4-10.38c2.72-7-2.1-15.41-10.77-18.77l-3.73-1.45c-8.67-3.36-17.89-.42-20.61,6.59l-4,10.38Z" transform="translate(1543.73 1917.53)"/><path class="cls-16" d="M367.57,305.25s2.32-18.55,5.19-33.88c9.75-3.05,4.18-8.63,2.17-10.32,0.34-1.38.68-2.67,1-3.82,4.62-1.95,23,21.45,9.78,41.95,0,0,32.65-1.34,37.87,3.12s2,13.95-5.22,17c10.46,2.37,13.16,18.84-4.47,20.45,0,0,5.94,7,4.14,12.55s-43.35,9.12-53.8-4.77C356.52,330.13,367.57,305.25,367.57,305.25Z" transform="translate(1543.73 1917.53)"/><path class="cls-17" d="M372.76,271.37c0.7-3.74,1.43-7.28,2.17-10.32C378.27,260.84,384.94,270.9,372.76,271.37Z" transform="translate(1543.73 1917.53)"/><path class="cls-3" d="M371.41,301.06s-160-10-190.37-15.38c0,0-8.06,48.42-9.5,60.57,0,0,185.77,4,197.88,1.8C369.41,348.06,374.07,314.39,371.41,301.06Z" transform="translate(1543.73 1917.53)"/><path class="cls-3" d="M363.69,298.51S200.79,286.42,170.38,281c0,0-13.82,57-15.26,69.17,0,0,190.7,1.52,202.8-.63C357.92,349.57,366.35,311.85,363.69,298.51Z" transform="translate(1543.73 1917.53)"/><path class="cls-18" d="M371.41,301.06s-160-10-190.37-15.38c0,0-8.06,48.42-9.5,60.57,0,0,185.77,4,197.88,1.8C369.41,348.06,374.07,314.39,371.41,301.06Z" transform="translate(1543.73 1917.53)"/><path class="cls-3" d="M363.69,298.51S200.79,286.42,170.38,281c0,0-13.82,57-15.26,69.17,0,0,190.7,1.52,202.8-.63C357.92,349.57,366.35,311.85,363.69,298.51Z" transform="translate(1543.73 1917.53)"/><path class="cls-16" d="M235.39,461.9s-2.39,19.72-5.38,36c-10.4,3.2-4.42,9.16-2.27,11-0.35,1.47-.71,2.84-1.06,4.05C221.75,515,202,490,216,468.26c0,0-34.86,1.27-40.45-3.51s-2.21-14.85,5.49-18c-11.18-2.57-14.14-20.11,4.68-21.74,0,0-6.38-7.52-4.48-13.37s46.24-9.49,57.46,5.34C247.07,435.49,235.39,461.9,235.39,461.9Z" transform="translate(1543.73 1917.53)"/><path class="cls-19" d="M230,497.92c-0.73,4-1.49,7.74-2.27,11C224.18,509.1,217,498.37,230,497.92Z" transform="translate(1543.73 1917.53)"/><path class="cls-4" d="M235,465s160,10,190.37,15.38c0,0,8.06-48.42,9.5-60.57,0,0-185.77-4-197.88-1.8C237,418,232.34,451.66,235,465Z" transform="translate(1543.73 1917.53)"/><path class="cls-3" d="M242.72,467.55S405.62,479.64,436,485c0,0,13.82-57,15.26-69.17,0,0-190.7-1.52-202.8.63C248.49,416.49,240.06,454.21,242.72,467.55Z" transform="translate(1543.73 1917.53)"/><path class="cls-20" d="M261.68,465.16s2.48-34,4.87-45.56C266.54,419.59,265.27,456.44,261.68,465.16Z" transform="translate(1543.73 1917.53)"/><circle class="cls-20" cx="251.83" cy="457.99" r="3.68" transform="translate(1387.11 2049.42) rotate(-22.59)"/><path class="cls-21" d="M371.22,376.31h-6.6v-8.6a1,1,0,0,0-1-1H313.5a1,1,0,0,0-1,1v11.58a11,11,0,0,0-5.9-1.74,11.21,11.21,0,0,0-6.17,1.9v-12a1,1,0,0,0-1-1H249.31a1,1,0,0,0-1,1v8.6h-6.77a1,1,0,0,0-1,1v10.27a1,1,0,0,0,1,1h6.77v9.86a1,1,0,0,0,1,1h50.11a1,1,0,0,0,1-1v-9.61h0.21c0-3.25,3.15-5.67,6-5.67a6,6,0,0,1,5.78,5.67h0.12v9.86a1,1,0,0,0,1,1h50.12a1,1,0,0,0,1-1v-9.86h6.6a1,1,0,0,0,1-1V377.31A1,1,0,0,0,371.22,376.31Z" transform="translate(1543.73 1917.53)"/><rect class="cls-22" x="1787.08" y="2290.53" width="9.02" height="12.28" rx="1" ry="1"/><path class="cls-22" d="M375,385.82a1,1,0,0,1-1,1h-7a1,1,0,0,1-1-1V375.55a1,1,0,0,1,1-1h7a1,1,0,0,1,1,1v10.27Z" transform="translate(1543.73 1917.53)"/><rect class="cls-23" x="1794.84" y="2280.93" width="52.12" height="32.74" rx="1" ry="1"/><rect class="cls-23" x="1859.03" y="2281.17" width="52.12" height="32.74" rx="1" ry="1"/><path class="cls-23" d="M320.55,385.53h-5.37a6,6,0,0,0-5.78-5.67c-2.81,0-6,2.42-6,5.67h-5.37c0-5.89,5.29-11,11.33-11A11.25,11.25,0,0,1,320.55,385.53Z" transform="translate(1543.73 1917.53)"/><path class="cls-15" d="M1802.15,2286.19h38.18a1,1,0,0,1,1,1v21.64a1,1,0,0,1-1,1h-38.18a1,1,0,0,1-1-1v-21.64A1,1,0,0,1,1802.15,2286.19Z"/><rect class="cls-24" x="1864.78" y="2286.29" width="40.63" height="23.86" rx="0.97" ry="0.97"/></g></g></svg>